<?xml version="1.0" encoding="utf-8"?>
<!-- Generator: Adobe Illustrator 28.0.0, SVG Export Plug-In . SVG Version: 6.00 Build 0)  -->
<svg version="1.1" id="Layer_1" xmlns="http://www.w3.org/2000/svg" xmlns:xlink="http://www.w3.org/1999/xlink" x="0px" y="0px"
	 width="24px" height="24px" viewBox="0 0 24 24" style="enable-background:new 0 0 24 24;" xml:space="preserve">
<style type="text/css">
	.st0{clip-path:url(#SVGID_00000031192719252785293980000009898729751999556256_);fill:#1B3251;}
</style>
<g>
	<defs>
		<rect id="SVGID_1_" width="24" height="24"/>
	</defs>
	<clipPath id="SVGID_00000034784171745397652350000017707888336047808148_">
		<use xlink:href="#SVGID_1_"  style="overflow:visible;"/>
	</clipPath>
	<path style="clip-path:url(#SVGID_00000034784171745397652350000017707888336047808148_);fill:#1B3251;" d="M17.8,17.7
		c0,0,0-0.1,0-0.1l0.2-2.1c0-0.3-0.1-0.6-0.4-0.7l-2.3-1c-0.3-0.1-0.7,0-0.9,0.3l-0.9,1.5c-2.3-1.1-4.1-3-5.2-5.2l1.5-0.9
		C10,9.2,10.2,8.9,10,8.5l-1-2.3C8.9,5.9,8.6,5.7,8.3,5.7L6.2,6C6.1,6,6.1,6,6,6h0c0,0,0,0,0,0C5.8,6.1,5.7,6.3,5.7,6.5
		C5.8,7,5.9,7.4,6,7.9c0,0,0,0,0,0c0,0,0,0,0,0c0.5,2.4,1.8,4.6,3.5,6.4c1.8,1.8,4,3,6.4,3.5c0.5,0.1,0.9,0.2,1.4,0.2
		C17.5,18.1,17.7,18,17.8,17.7C17.8,17.8,17.8,17.8,17.8,17.7"/>
	<path style="clip-path:url(#SVGID_00000034784171745397652350000017707888336047808148_);fill:#1B3251;" d="M11.9,23.8
		c-1.6,0-3.2-0.3-4.6-0.9c-1.4-0.6-2.7-1.5-3.8-2.5c-1.1-1.1-1.9-2.4-2.5-3.8C0.3,15,0,13.5,0,11.9c0-1.6,0.3-3.2,0.9-4.6
		c0.6-1.4,1.5-2.7,2.5-3.8c1.1-1.1,2.4-1.9,3.8-2.5c1.5-0.6,3-0.9,4.6-0.9s3.2,0.3,4.6,0.9c1.4,0.6,2.7,1.5,3.8,2.5
		c1.1,1.1,1.9,2.4,2.5,3.8c0.6,1.5,0.9,3,0.9,4.6c0,1.6-0.3,3.2-0.9,4.6c-0.6,1.4-1.5,2.7-2.5,3.8c-1.1,1.1-2.4,1.9-3.8,2.5
		C15,23.5,13.5,23.8,11.9,23.8 M11.9,1C5.9,1,1,5.9,1,11.9c0,6,4.9,10.9,10.9,10.9c6,0,10.9-4.9,10.9-10.9C22.8,5.9,17.9,1,11.9,1z"
		/>
</g>
</svg>
