<?xml version="1.0" encoding="utf-8"?>
<!-- Generator: Adobe Illustrator 23.0.3, SVG Export Plug-In . SVG Version: 6.00 Build 0)  -->
<svg version="1.1" id="Layer_1" xmlns="http://www.w3.org/2000/svg" xmlns:xlink="http://www.w3.org/1999/xlink" x="0px" y="0px"
	 viewBox="0 0 449.5 93.1" style="enable-background:new 0 0 449.5 93.1;" xml:space="preserve">
<style type="text/css">
	.st0{fill:#C2AC57;}
	.st1{fill:#1B3154;}
	.st2{fill:none;stroke:#C2AC57;stroke-width:2;stroke-miterlimit:10;}
</style>
<path class="st0" d="M235.6,54.3c-0.1,0-0.2,0-0.2,0l-23-2.9c-0.9-0.1-1.6-0.9-1.6-1.9l0.7-17.5c0-0.1-0.1-0.2-0.2-0.3L200.9,28
	c-0.6-0.2-1.1-0.8-1.2-1.5l-1.1-8.5c-0.1-0.5,0.1-1,0.4-1.4c0.3-0.4,0.8-0.6,1.4-0.6h6.7c0.1,0,0.2-0.1,0.2-0.1c0,0,0.1-0.1,0.1-0.2
	l-0.8-5.4c-0.1-0.6,0.1-1.2,0.6-1.6s1.1-0.6,1.7-0.4l8.2,1.9c0.1,0,0.2,0,0.3-0.1l6.3-9.3c0.6-0.8,1.6-1,2.5-0.5l20.9,13.3
	c0.4,0.3,0.7,0.7,0.8,1.2c0.1,0.5,0,1-0.3,1.4l-5.9,7.9c-0.3,0.3-0.7,0.4-1.1,0.2c-0.3-0.3-0.4-0.7-0.2-1.1l5.9-7.9
	c0.1-0.1,0.1-0.2,0.1-0.2c0,0,0-0.1-0.1-0.2L225.2,1.6c-0.1-0.1-0.3,0-0.4,0.1l-6.3,9.3c-0.4,0.6-1.2,0.9-1.9,0.7l-8.2-1.9
	c-0.1,0-0.2,0-0.3,0.1c0,0-0.1,0.1-0.1,0.2l0.8,5.4c0.1,0.5-0.1,1.1-0.4,1.5c-0.3,0.4-0.8,0.6-1.4,0.6h-6.7c-0.1,0-0.2,0.1-0.2,0.1
	c0,0-0.1,0.1-0.1,0.2l1.1,8.5c0,0.1,0.1,0.2,0.2,0.2l10.5,3.8c0.8,0.3,1.2,1,1.2,1.8l-0.7,17.5c0,0.1,0.1,0.3,0.2,0.3l23,2.9
	c0.1,0,0.3-0.1,0.3-0.2l1-4.4c0.1-0.6,0.5-1.1,1.1-1.3l12.5-5c0.4-0.2,0.8,0,1,0.4c0.2,0.4,0,0.8-0.4,1l-12.5,5
	c-0.1,0-0.1,0.1-0.2,0.2l-1,4.4C237.2,53.7,236.5,54.3,235.6,54.3"/>
<path class="st1" d="M3.6,64.2H3.5c0-0.8-0.3-1.4-0.9-2c-0.6-0.6-1.2-0.8-2-0.8H0l0-0.4h3.6V64.2z M3.6,89.2v3.3H0V92h0.6
	c0.8,0,1.4-0.3,2-0.8c0.6-0.6,0.8-1.2,0.9-2H3.6z M6.4,92.4H3.5V60.9h2.9V92.4z M18.5,62.3H6.3v-1.4h12.3V62.3z M16.6,77.6H6.3v-1.4
	h10.3V77.6z M6.3,89.2h0.1c0,0.8,0.3,1.4,0.9,2c0.6,0.6,1.2,0.8,2,0.8h0.6v0.5H6.3V89.2z M18.5,60.1v1.3L13,60.9
	c0.7,0,1.4,0,2.1-0.1c0.7-0.1,1.4-0.2,2-0.3C17.8,60.4,18.3,60.2,18.5,60.1 M16.6,73.4v3H14v-0.1c0.6,0,1.1-0.3,1.5-0.7
	c0.4-0.4,0.6-1,0.6-1.6v-0.6H16.6z M16.6,77.5v3h-0.5v-0.7c0-0.6-0.2-1.1-0.6-1.6c-0.4-0.4-0.9-0.7-1.5-0.7v-0.1H16.6z M18.5,62.2v3
	h-0.5v-0.7c0-0.6-0.2-1.1-0.7-1.6c-0.4-0.4-1-0.7-1.6-0.7v-0.1H18.5z"/>
<path class="st1" d="M25.6,68.3L25.6,68.3c-0.1-0.7-0.4-1.3-0.9-1.7c-0.5-0.4-1.1-0.7-1.8-0.7h-0.6v-0.5h3.8L25.6,68.3z M25.6,89.6
	l0.5,2.9h-3.8V92h0.6c0.7,0,1.3-0.2,1.8-0.7C25.2,90.8,25.5,90.2,25.6,89.6L25.6,89.6z M28.3,92.4h-2.9v-27h2.9V92.4z M28.2,89.6
	h0.1c0,0.7,0.3,1.2,0.8,1.7c0.5,0.5,1.1,0.7,1.8,0.7h0.6l0,0.4h-3.9L28.2,89.6z M33.6,65.4c1.4,0,2.7,0.2,3.8,0.5s2.1,0.8,2.9,1.4
	c0.8,0.6,1.4,1.4,1.8,2.3c0.4,0.9,0.6,1.9,0.6,3.1c0,1.3-0.3,2.4-0.9,3.5c-0.6,1.1-1.4,2-2.5,2.7c-1.1,0.7-2.3,1.1-3.6,1.3
	c0.5,0.2,1.1,0.7,1.8,1.4c0.7,0.7,1.3,1.4,1.7,2.1c0.8,1,1.5,2,2.1,2.7c0.6,0.8,1.2,1.5,1.8,2.2c0.6,0.7,1.2,1.3,1.7,1.8
	c0.5,0.5,1.1,0.9,1.7,1.2c0.6,0.3,1.3,0.4,2.1,0.4v0.4h-1.4c-1.7,0-3-0.2-4.1-0.6s-1.9-0.9-2.6-1.6C40,89.6,39.4,89,39,88.5
	c-0.1-0.1-0.4-0.5-0.8-1.1c-0.4-0.6-0.9-1.3-1.4-2c-0.5-0.7-1-1.4-1.4-2c-0.4-0.6-0.7-0.9-0.8-1.1c-0.6-0.8-1.3-1.5-2.1-2.1
	c-0.8-0.6-1.6-0.9-2.5-0.9v-0.4c1,0,1.8,0,2.6,0c0.8,0,1.7-0.1,2.5-0.2c0.8-0.1,1.6-0.4,2.4-1c0.7-0.5,1.3-1.4,1.7-2.7
	c0.1-0.3,0.2-0.7,0.3-1.2c0.1-0.4,0.1-0.9,0-1.4c0-0.8-0.2-1.6-0.5-2.3c-0.3-0.7-0.7-1.2-1.2-1.7c-0.5-0.5-1.1-0.9-1.9-1.1
	c-0.7-0.3-1.5-0.4-2.4-0.5c-1.4-0.1-2.6-0.1-3.7,0c-1.1,0-1.6,0-1.6,0s0-0.2-0.1-0.4c-0.1-0.2-0.2-0.6-0.3-1H33.6z"/>
<path class="st1" d="M53.9,68.3L53.9,68.3c-0.1-0.7-0.4-1.3-0.9-1.7c-0.5-0.5-1.1-0.7-1.8-0.7h-0.6v-0.4h3.9L53.9,68.3z M53.9,89.6
	l0.6,2.9h-3.9V92h0.6c0.8,0,1.4-0.2,1.8-0.7C53.5,90.8,53.7,90.2,53.9,89.6L53.9,89.6z M56.7,92.4h-2.9v-27h2.9V92.4z M68.7,66.8
	H56.6v-1.4h12.1V66.8z M66.6,79.6H56.6v-1.3h10.1V79.6z M68.8,91l-0.1,1.4H56.6V91H68.8z M71.3,86l-2.5,6.4H62l1.5-1.4
	c1.5,0,2.7-0.2,3.6-0.7c0.9-0.4,1.7-1,2.2-1.8c0.6-0.8,1.1-1.6,1.5-2.6H71.3z M68.7,64.7v1.2l-5.1-0.4c0.9,0,1.9-0.1,3-0.2
	S68.3,64.9,68.7,64.7 M66.6,75.8v2.6h-2.3v-0.1c0.6,0,1.1-0.2,1.4-0.6s0.4-0.8,0.4-1.3v-0.6H66.6z M66.6,79.5v2.6h-0.5v-0.6
	c0-0.5-0.1-1-0.4-1.3c-0.3-0.4-0.8-0.6-1.4-0.6v-0.1H66.6z M68.7,66.7v3.1h-0.5v-0.7c0-0.6-0.2-1.2-0.6-1.6c-0.4-0.5-1-0.7-1.6-0.7
	v-0.1H68.7z"/>
<path class="st1" d="M77.6,89.6v2.8h-3.4V92H75c0.7,0,1.3-0.2,1.8-0.7c0.5-0.4,0.7-1,0.7-1.7H77.6z M77.5,64.8l1.9,2.5l0,25.2h-2
	v-22c0-1.5-0.1-3.4-0.4-5.6H77.5z M77.5,64.8l24.9,23.5l0.4,4.8L77.9,69.4L77.5,64.8z M79.5,89.6c0,0.7,0.2,1.2,0.7,1.7
	c0.5,0.5,1.1,0.7,1.7,0.7h0.8v0.4h-3.4v-2.8H79.5z M100.9,68.2c0-0.7-0.3-1.2-0.8-1.7c-0.5-0.5-1.1-0.7-1.8-0.7h-0.8v-0.4h3.4
	L100.9,68.2L100.9,68.2z M102.9,65.4v21.9c0,1,0,1.9,0.1,2.8c0.1,0.9,0.2,1.9,0.3,3h-0.4l-2-2.4V65.4H102.9z M102.7,68.2v-2.8h3.4
	v0.4h-0.8c-0.7,0-1.2,0.2-1.7,0.7c-0.5,0.4-0.7,1-0.7,1.7H102.7z"/>
<path class="st1" d="M137.4,81.1l-0.5,6.2c-0.8,1.2-1.8,2.2-3.1,3.1c-1.3,0.9-2.7,1.5-4.3,2c-1.6,0.5-3.3,0.7-5,0.7
	c-3,0-5.7-0.6-7.9-1.8c-2.2-1.1-4-2.8-5.2-4.9c-1.2-2.1-1.8-4.6-1.8-7.5c0-2.9,0.6-5.5,1.8-7.6c1.2-2.1,2.9-3.7,5.2-4.9
	c2.2-1.1,4.9-1.7,7.9-1.7c1.9,0,3.7,0.2,5.6,0.7c1.9,0.5,3.5,1.2,4.9,2l1,6.3h-0.4c-0.7-2.8-2-4.7-4-5.9c-2-1.2-4.4-1.8-7.2-1.8
	c-2.4,0-4.4,0.5-6.1,1.6c-1.7,1-3.1,2.5-4,4.4c-0.9,1.9-1.4,4.2-1.4,6.8c0,2.6,0.5,4.8,1.4,6.7c0.9,1.9,2.3,3.4,4,4.4
	c1.7,1,3.8,1.6,6.2,1.6c2.3,0,4.3-0.4,6.1-1.1c1.8-0.7,3.3-1.9,4.4-3.4c1.1-1.6,1.8-3.6,1.9-6H137.4z"/>
<path class="st1" d="M144.9,68.3h-0.1c0-0.7-0.3-1.3-0.8-1.7c-0.5-0.5-1.1-0.7-1.8-0.7h-0.5v-0.4h3.3V68.3z M144.9,89.6v2.9h-3.3V92
	h0.5c0.7,0,1.3-0.2,1.8-0.7c0.5-0.5,0.8-1.1,0.8-1.7H144.9z M147.7,92.4h-2.9v-27h2.9V92.4z M164.7,79.8h-17.5v-1.4h17.5V79.8z
	 M147.6,68.3v-2.9h3.3v0.4h-0.5c-0.7,0-1.3,0.2-1.8,0.7c-0.5,0.5-0.8,1-0.8,1.7H147.6z M147.6,89.6h0.1c0,0.7,0.3,1.2,0.8,1.7
	c0.5,0.5,1.1,0.7,1.8,0.7h0.5v0.5h-3.3V89.6z M164.4,68.3h-0.1c0-0.7-0.3-1.3-0.8-1.7c-0.5-0.5-1.1-0.7-1.8-0.7h-0.5v-0.4h3.3V68.3z
	 M164.4,89.6v2.9h-3.3V92h0.5c0.7,0,1.3-0.2,1.8-0.7c0.5-0.5,0.8-1.1,0.8-1.7H164.4z M167.2,92.4h-2.9v-27h2.9V92.4z M167,68.3v-2.9
	h3.3v0.4h-0.5c-0.7,0-1.3,0.2-1.8,0.7c-0.5,0.5-0.8,1-0.8,1.7H167z M167,89.6h0.1c0,0.7,0.3,1.2,0.8,1.7c0.5,0.5,1.1,0.7,1.8,0.7
	h0.5v0.5H167V89.6z"/>
<path class="st1" d="M195.3,60.3c0.5,0,1,0,1.6,0.1c0.6,0.1,1.1,0.1,1.6,0.2c0.5,0.1,1,0.2,1.4,0.3c0.4,0.1,0.8,0.2,1,0.3v5h-0.4
	c0-1.4-0.5-2.6-1.5-3.4c-1-0.8-2.2-1.2-3.6-1.2c-1.7,0-3,0.5-4,1.6c-1,1-1.5,2.2-1.5,3.6c0,0.6,0.1,1.2,0.4,2s0.7,1.5,1.4,2.1
	l8.9,8.2c0.9,0.8,1.5,1.7,1.8,2.7c0.3,1,0.5,1.9,0.5,2.8c0,2.5-0.8,4.5-2.3,6.1c-1.5,1.6-3.6,2.3-6.1,2.3c-0.7,0-1.6-0.1-2.5-0.2
	c-1-0.2-1.9-0.4-2.8-0.8c-0.9-0.4-1.7-0.9-2.3-1.5c-0.1-0.5-0.1-1.1-0.1-1.8c0-0.7,0.1-1.5,0.2-2.3c0.1-0.8,0.3-1.5,0.5-2.2h0.4
	c-0.2,1.5,0,2.9,0.6,4c0.5,1.1,1.3,2,2.4,2.6s2.2,0.8,3.5,0.8c1.6-0.1,3.1-0.7,4.3-1.7c1.2-1.1,1.8-2.5,1.8-4.3
	c0-0.9-0.2-1.7-0.5-2.4c-0.3-0.7-0.7-1.3-1.3-1.8l-8.6-8c-0.9-0.8-1.5-1.8-1.9-2.8c-0.4-1-0.5-1.9-0.5-2.8c0-1.3,0.3-2.5,0.9-3.6
	c0.6-1.2,1.5-2.1,2.7-2.9C192.1,60.7,193.6,60.3,195.3,60.3 M200.9,61.7h-3.4v-0.9h3.4V61.7z"/>
<path class="st1" d="M211.7,68.3h-0.1c0-0.7-0.3-1.3-0.9-1.7c-0.6-0.5-1.3-0.7-2.1-0.7h-0.6v-0.4h3.8V68.3z M211.7,89.6v2.9h-3.8V92
	h0.6c0.8,0,1.6-0.2,2.1-0.7c0.6-0.5,0.9-1.1,0.9-1.7H211.7z M214.4,92.4h-2.8v-27h2.8V92.4z M214.2,68.3v-2.9h3.8l0,0.4h-0.6
	c-0.8,0-1.6,0.2-2.1,0.7c-0.6,0.5-0.9,1-0.9,1.7H214.2z M214.2,89.6h0.1c0,0.7,0.3,1.2,0.9,1.7c0.6,0.5,1.3,0.7,2.1,0.7h0.6l0,0.5
	h-3.8V89.6z"/>
<path class="st1" d="M226.2,68.4L226.2,68.4c-0.1-0.7-0.4-1.3-0.9-1.8c-0.5-0.5-1.1-0.7-1.8-0.7H223v-0.5h3.2V68.4z M226.2,89.5v2.9
	H223V92h0.6c0.7,0,1.3-0.2,1.8-0.7C225.8,90.7,226.1,90.2,226.2,89.5L226.2,89.5z M229,92.4h-2.9v-27h2.9V92.4z M238,65.4
	c3,0,5.5,0.5,7.7,1.6s3.8,2.6,5,4.7c1.2,2,1.8,4.4,1.8,7.2c0,2.8-0.6,5.2-1.8,7.2c-1.2,2-2.8,3.6-5,4.7c-2.2,1.1-4.7,1.6-7.7,1.6
	h-9.6l-0.1-1.3h5.3h4.4c3.5,0,6.2-1.1,8.2-3.3c2-2.2,3-5.1,3-8.9s-1-6.7-3-8.9c-2-2.2-4.7-3.3-8.2-3.3h-4.6h-5.5v-1.4H238z"/>
<path class="st1" d="M259.8,68.3L259.8,68.3c-0.1-0.7-0.4-1.3-0.9-1.7c-0.5-0.5-1.1-0.7-1.8-0.7h-0.6v-0.4h3.9L259.8,68.3z
	 M259.8,89.6l0.6,2.9h-3.9V92h0.6c0.7,0,1.4-0.2,1.8-0.7C259.5,90.8,259.7,90.2,259.8,89.6L259.8,89.6z M262.6,92.4h-2.9v-27h2.9
	V92.4z M274.7,66.8h-12.2v-1.4h12.2V66.8z M272.6,79.6h-10.1v-1.3h10.1V79.6z M274.7,91l-0.1,1.4h-12.1V91H274.7z M277.2,86
	l-2.5,6.4h-6.8l1.5-1.4c1.5,0,2.7-0.2,3.6-0.7c0.9-0.4,1.7-1,2.2-1.8c0.6-0.8,1.1-1.6,1.5-2.6H277.2z M274.7,64.7v1.2l-5.1-0.4
	c0.9,0,1.9-0.1,3-0.2C273.6,65,274.3,64.9,274.7,64.7 M272.6,75.8v2.6h-2.3v-0.1c0.6,0,1.1-0.2,1.4-0.6c0.3-0.4,0.5-0.8,0.5-1.3
	v-0.6H272.6z M272.6,79.5v2.6h-0.5v-0.6c0-0.5-0.2-1-0.5-1.3c-0.3-0.4-0.8-0.6-1.4-0.6v-0.1H272.6z M274.7,66.7v3.1h-0.5v-0.7
	c0-0.6-0.2-1.2-0.6-1.6c-0.4-0.5-1-0.7-1.6-0.7v-0.1H274.7z"/>
<path class="st1" d="M290.7,60.1c0.3,0.1,0.8,0.2,1.4,0.4c0.6,0.1,1.3,0.2,2,0.3c0.7,0.1,1.4,0.1,2.1,0.1l-5.5,0.5V60.1z
	 M316.8,62.2h-26.1v-1.3h26.1V62.2z M293.8,62.1v0.1c-0.8,0-1.4,0.3-1.9,0.8c-0.5,0.5-0.8,1.1-0.8,1.9v0.8l-0.5,0v-3.6H293.8z
	 M302.4,89.2v3.3h-3.6V92h0.6c0.8,0,1.4-0.3,2-0.8c0.6-0.6,0.8-1.2,0.9-2H302.4z M305.2,92.4h-2.9V61.1h2.9V92.4z M305.1,89.2h0.1
	c0,0.8,0.3,1.4,0.9,2c0.6,0.6,1.2,0.8,2,0.8h0.6v0.4h-3.6V89.2z M316.8,60.1v1.3l-5.5-0.5c0.7,0,1.4,0,2.1-0.1
	c0.7-0.1,1.4-0.2,2-0.3C316.1,60.3,316.5,60.2,316.8,60.1 M316.8,62.1v3.6l-0.5,0v-0.8c0-0.7-0.3-1.4-0.8-1.9
	c-0.5-0.5-1.1-0.8-1.9-0.8v-0.1H316.8z"/>
<path class="st1" d="M323.4,68.3L323.4,68.3c-0.1-0.7-0.4-1.3-0.9-1.7c-0.5-0.4-1.1-0.7-1.8-0.7h-0.6v-0.5h3.8L323.4,68.3z
	 M323.4,89.6l0.5,2.9h-3.8V92h0.6c0.7,0,1.3-0.2,1.8-0.7C323,90.8,323.3,90.2,323.4,89.6L323.4,89.6z M326.2,92.4h-2.9v-27h2.9V92.4
	z M326,89.6h0.1c0,0.7,0.3,1.2,0.8,1.7c0.5,0.5,1.1,0.7,1.8,0.7h0.6l0,0.4h-3.9L326,89.6z M331.4,65.4c1.4,0,2.7,0.2,3.8,0.5
	s2.1,0.8,2.9,1.4c0.8,0.6,1.4,1.4,1.8,2.3c0.4,0.9,0.6,1.9,0.6,3.1c0,1.3-0.3,2.4-0.9,3.5s-1.4,2-2.5,2.7c-1.1,0.7-2.3,1.1-3.6,1.3
	c0.5,0.2,1.1,0.7,1.8,1.4c0.7,0.7,1.3,1.4,1.7,2.1c0.8,1,1.5,2,2.1,2.7c0.6,0.8,1.2,1.5,1.8,2.2c0.6,0.7,1.2,1.3,1.7,1.8
	c0.5,0.5,1.1,0.9,1.7,1.2c0.6,0.3,1.3,0.4,2.1,0.4v0.4h-1.4c-1.7,0-3-0.2-4.1-0.6s-1.9-0.9-2.6-1.6c-0.7-0.6-1.2-1.2-1.7-1.8
	c-0.1-0.1-0.4-0.5-0.8-1.1c-0.4-0.6-0.9-1.3-1.4-2c-0.5-0.7-1-1.4-1.4-2c-0.4-0.6-0.7-0.9-0.8-1.1c-0.6-0.8-1.3-1.5-2.1-2.1
	c-0.8-0.6-1.6-0.9-2.5-0.9v-0.4c1,0,1.8,0,2.6,0c0.8,0,1.7-0.1,2.5-0.2c0.8-0.1,1.6-0.4,2.4-1c0.7-0.5,1.3-1.4,1.7-2.7
	c0.1-0.3,0.2-0.7,0.3-1.2c0.1-0.4,0.1-0.9,0-1.4c0-0.8-0.2-1.6-0.5-2.3c-0.3-0.7-0.7-1.2-1.2-1.7c-0.5-0.5-1.1-0.9-1.9-1.1
	c-0.7-0.3-1.5-0.4-2.4-0.5c-1.4-0.1-2.6-0.1-3.7,0c-1.1,0-1.6,0-1.6,0s0-0.2-0.1-0.4c-0.1-0.2-0.2-0.6-0.3-1H331.4z"/>
<path class="st1" d="M352.3,89.2c-0.3,0.9-0.3,1.6,0.1,2.1c0.4,0.5,0.9,0.7,1.4,0.7h0.4v0.4h-8.6V92h0.4c0.6,0,1.3-0.2,1.9-0.7
	c0.7-0.4,1.2-1.2,1.7-2.2H352.3z M361,64.8l0.3,3.1L351,92.3h-2.8l10.7-22.9c0.3-0.7,0.6-1.3,0.8-1.9s0.4-1,0.6-1.6
	c0.2-0.5,0.3-0.9,0.3-1.2H361z M366.3,83.3h-11.9V82h11.9V83.3z M361,64.8l12.4,27.4h-3.6l-9.6-23.4L361,64.8z M368.6,89.2h3.4
	c0.5,1,1,1.7,1.7,2.2c0.7,0.4,1.3,0.7,1.9,0.7h0.4v0.4h-9.2V92h0.4c0.5,0,1-0.2,1.4-0.7C368.9,90.8,368.9,90.1,368.6,89.2"/>
<path class="st1" d="M379,68.7h-3.4c-0.4-1-1-1.7-1.7-2.2c-0.7-0.4-1.3-0.7-1.9-0.7h-0.4v-0.4h9.2v0.4h-0.4c-0.5,0-1,0.2-1.4,0.7
	C378.7,67.1,378.7,67.8,379,68.7 M386.6,93.1l-12.4-27.4h3.6l9.6,23.4L386.6,93.1z M386.6,93.1l-0.3-3.1l10.3-24.4h2.8l-10.7,22.9
	c-0.3,0.7-0.6,1.3-0.8,1.9c-0.2,0.5-0.4,1-0.6,1.6c-0.2,0.5-0.3,0.9-0.3,1.2H386.6z M395.3,68.7c0.3-0.9,0.3-1.6-0.1-2.1
	c-0.4-0.5-0.9-0.7-1.4-0.7h-0.3v-0.4h8.6v0.4h-0.4c-0.6,0-1.3,0.2-1.9,0.7c-0.7,0.4-1.2,1.2-1.7,2.2H395.3z"/>
<path class="st1" d="M407.5,68.3L407.5,68.3c-0.1-0.7-0.4-1.3-0.9-1.7c-0.5-0.5-1.1-0.7-1.8-0.7h-0.6v-0.4h3.9L407.5,68.3z
	 M407.5,89.6l0.6,2.9h-3.9V92h0.6c0.7,0,1.4-0.2,1.8-0.7C407.1,90.8,407.4,90.2,407.5,89.6L407.5,89.6z M410.3,92.4h-2.9v-27h2.9
	V92.4z M422.4,66.8h-12.2v-1.4h12.2V66.8z M420.3,79.6h-10.1v-1.3h10.1V79.6z M422.4,91l-0.1,1.4h-12.1V91H422.4z M424.9,86
	l-2.5,6.4h-6.8l1.5-1.4c1.5,0,2.7-0.2,3.6-0.7c0.9-0.4,1.7-1,2.2-1.8c0.6-0.8,1.1-1.6,1.5-2.6H424.9z M422.4,64.7v1.2l-5.1-0.4
	c0.9,0,1.9-0.1,3-0.2C421.3,65,422,64.9,422.4,64.7 M420.3,75.8v2.6H418v-0.1c0.6,0,1.1-0.2,1.4-0.6c0.3-0.4,0.5-0.8,0.5-1.3v-0.6
	H420.3z M420.3,79.5v2.6h-0.5v-0.6c0-0.5-0.2-1-0.5-1.3c-0.3-0.4-0.8-0.6-1.4-0.6v-0.1H420.3z M422.4,66.7v3.1h-0.5v-0.7
	c0-0.6-0.2-1.2-0.6-1.6c-0.4-0.5-1-0.7-1.6-0.7v-0.1H422.4z"/>
<path class="st1" d="M431.6,68.3L431.6,68.3c-0.1-0.7-0.4-1.3-0.9-1.7c-0.5-0.5-1.1-0.7-1.9-0.7h-0.5v-0.4h3.3V68.3z M431.6,89.6
	l0.6,2.9h-3.9V92h0.6c0.7,0,1.4-0.2,1.8-0.7C431.3,90.8,431.5,90.2,431.6,89.6L431.6,89.6z M434.4,92.4h-2.9v-27h2.9V92.4z
	 M434.3,68.3v-2.9h3.3v0.4h-0.5c-0.7,0-1.3,0.2-1.9,0.7c-0.5,0.5-0.8,1-0.8,1.7H434.3z M446.5,91l-0.1,1.4h-12.1V91H446.5z
	 M449.1,86l-2.5,6.4h-6.8l1.5-1.4c1.5,0,2.7-0.2,3.6-0.7c0.9-0.4,1.7-1,2.2-1.8c0.6-0.8,1.1-1.6,1.5-2.6H449.1z"/>
<path class="st2" d="M0.3,33h194.8H0.3z"/>
<path class="st2" d="M254.7,33h194.8H254.7z"/>
</svg>
